<svg xmlns="http://www.w3.org/2000/svg" version="1.1" xmlns:xlink="http://www.w3.org/1999/xlink" width="512" height="512" x="0" y="0" viewBox="0 0 512 512" style="enable-background:new 0 0 512 512" xml:space="preserve" class=""><g><path d="M256 505.807c101.109 0 191.604-60.29 230.546-153.592 2.447-5.877-.33-12.629-6.2-15.08-5.907-2.447-12.633.33-15.087 6.2C429.919 428.024 347.778 482.748 256 482.748c-125.031 0-226.748-101.72-226.748-226.748S130.969 29.252 256 29.252 482.748 130.973 482.748 256c0 11.646-.886 23.228-2.635 34.427-.976 6.29 3.325 12.186 9.615 13.166 6.268.972 12.183-3.322 13.173-9.615 1.929-12.366 2.905-25.146 2.905-37.978C505.807 118.257 393.746 6.193 256 6.193S6.193 118.257 6.193 256 118.254 505.807 256 505.807z" fill="#000000" opacity="1" data-original="#000000" class=""></path><path d="M255.992 81.12c-96.41 0-174.85 78.462-174.85 174.902 0 96.414 78.44 174.85 174.85 174.85 96.44 0 174.895-78.436 174.895-174.85 0-96.439-78.455-174.902-174.895-174.902zm0 326.693c-83.694 0-151.791-68.093-151.791-151.791 0-83.728 68.096-151.843 151.791-151.843 83.724 0 151.836 68.115 151.836 151.843 0 83.699-68.111 151.791-151.836 151.791z" fill="#000000" opacity="1" data-original="#000000" class=""></path><path d="M265.383 170.549c-4.346-6.02-14.374-6.001-18.705.004l-56.754 78.751a11.522 11.522 0 0 0 0 13.485l56.724 78.654c4.59 6.361 14.092 6.39 18.705-.004l56.754-78.751a11.522 11.522 0 0 0 0-13.485zM256 314.984l-42.508-58.943 42.538-59.033 42.508 58.943z" fill="#000000" opacity="1" data-original="#000000" class=""></path></g></svg>